<svg id="hereticMap" height="500" width="950">
                <polygon onmouseover="turnGreen(document.getElementById('topMid'))" onmouseout="returnColor(document.getElementById('topMid'))"  id="topMid" points="273,173 288,183 298,194 303,201 306,211 308,220 310,232 310,245 309,255 306,266 302,275 298,283 291,292 285,298 274,304 270,298 262,295 244,296 239,299 236,304 224,297 217,291 211,282 207,275 203,265 201,255 201,245 200,231 201,224 203,213 207,207 208,202 213,193 219,186 227,179 236,173 239,179 242,181 250,182 252,183 260,183 265,181 271,178"/>
                <polygon onmouseover="turnGreen(document.getElementById('bottomMid'))" onmouseout="returnColor(document.getElementById('bottomMid'))" id="bottomMid" points="703,185 756,185 770,198 779,213 784,226 784,256 777,275 771,287 763,299 754,309 704,309 692,297 684,281 677,266 674,255 675,229 679,212 686,201 695,192" />
                <polygon onmouseover="turnGreen(document.getElementById('backWall'))" onmouseout="returnColor(document.getElementById('backWall'))" id="backWall" points="272,434 270,440 267,445 243,445 242,439 240,434" />
                <polygon onmouseover="turnGreen(document.getElementById('blueStreet'))" onmouseout="returnColor(document.getElementById('blueStreet'))" id="blueStreet" points="225,400 218,400 214,399 205,397 197,395 186,390 171,382 159,372 149,364 135,378 152,393 163,401 176,409 197,416 213,420 225,422" />
                <polygon onmouseover="turnGreen(document.getElementById('redBubble'))" onmouseout="returnColor(document.getElementById('redBubble'))" id="redBubble" points="400,57 400,69 398,79 395,85 391,96 384,103 374,110 363,112 352,109 341,102 335,95 331,83 327,75 327,57" />
                <polygon onmouseover="turnGreen(document.getElementById('car3'))" onmouseout="returnColor(document.getElementById('car3'))" id="car3" points="229,63 228,57 235,50 236,42 276,42 276,50 280,54 283,57 283,63 274,63 271,66 271,93 274,96 290,96 294,98 293,100 287,104 275,115 267,121 245,121 236,115 230,109 226,105 220,101 216,98 221,96 237,96 241,92 241,66 237,63" />
                <polygon onmouseover="turnGreen(document.getElementById('blueCarPocket'))" onmouseout="returnColor(document.getElementById('blueCarPocket'))" id="blueCarPocket" points="131,222 104,187 110,184 114,178 117,178 124,182 131,187" />
                <polygon onmouseover="turnGreen(document.getElementById('blueCurious'))" onmouseout="returnColor(document.getElementById('blueCurious'))" id="blueCurious" points="74,287 78,299 85,314 91,326 97,335 111,353 124,368 135,378 149,361 141,352 129,339 116,323 108,310 101,299 96,290" />
                <polygon onmouseover="turnGreen(document.getElementById('blueCurvy'))" onmouseout="returnColor(document.getElementById('blueCurvy'))" id="blueCurvy" points="119,102 124,107 129,110 133,112 141,115 146,116 146,119 148,126 150,130 153,131 156,136 158,141 153,145 148,149 147,143 145,139 139,134 129,135 125,137 118,141 114,146 109,152 107,151 101,146 89,136 98,122 112,107" />
                <polygon onmouseover="turnGreen(document.getElementById('blueEli'))" onmouseout="returnColor(document.getElementById('blueEli'))" id="blueEli" points="137,278 130,281 120,287 122,291 123,294 130,293 137,288" />
                <polygon onmouseover="turnGreen(document.getElementById('blueGandhi'))" onmouseout="returnColor(document.getElementById('blueGandhi'))" id="blueGandhi" points="146,154 153,148 159,144 165,141 168,143 170,147 165,154 158,162 155,169 154,175 153,182 153,188 151,195 148,199 144,201 142,199 141,183 147,178" />
                <polygon onmouseover="turnGreen(document.getElementById('blueGlass'))" onmouseout="returnColor(document.getElementById('blueGlass'))" id="blueGlass" points="40,237 41,247 44,257 49,264 66,277 58,288 48,283 41,278 34,269 28,260 25,251 24,243 29,242 35,236" />
                <polygon onmouseover="turnGreen(document.getElementById('blueHighLedge'))" onmouseout="returnColor(document.getElementById('blueHighLedge'))" id="blueHighLedge" points="140,261 146,262 149,264 154,267 154,272 154,297 155,299 165,306 173,312 182,319 191,326 191,329 187,329 179,326 171,319 160,312 157,310 153,314 150,314 147,309 144,301 140,295" />
                <polygon onmouseover="turnGreen(document.getElementById('blueNerd'))" onmouseout="returnColor(document.getElementById('blueNerd'))" id="blueNerd" points="242,373 242,376 237,375 236,376 222,390 222,395 217,395 210,394 200,391 192,388 180,382 170,376 166,372 169,370 175,370 193,380 205,380 216,379 221,376 221,359 228,359 228,373" />
                <polygon onmouseover="turnGreen(document.getElementById('pink2'))" onmouseout="returnColor(document.getElementById('pink2'))" id="pink2" points="238,432 235,428 230,424 227,423 228,392 240,380 271,380 277,386 283,393 283,422 279,426 273,432" />
                <polygon onmouseover="turnGreen(document.getElementById('pinkFace'))" onmouseout="returnColor(document.getElementById('pinkFace'))" id="pinkFace" points="233,368 233,359 241,354 248,352 264,352 272,356 277,359 277,368" />
                <polygon onmouseover="turnGreen(document.getElementById('bluePinkPocket'))" onmouseout="returnColor(document.getElementById('bluePinkPocket'))" id="bluePinkPocket" points="131,247 125,247 117,262 110,273 113,278 123,273 132,266" />
                <polygon onmouseover="turnGreen(document.getElementById('blueSlide'))" onmouseout="returnColor(document.getElementById('blueSlide'))" id="blueSlide" points="234,73 216,73 206,75 197,77 189,82 183,88 177,98 166,108 149,117 154,129 161,125 171,121 183,113 194,102 204,93 212,91 217,89 234,89" />
                <polygon onmouseover="turnGreen(document.getElementById('sword'))" onmouseout="returnColor(document.getElementById('sword'))" id="sword" points="240,216 249,217 252,220 258,220 261,217 270,216 271,220 269,227 268,231 268,252 261,256 245,255 242,251 243,230 241,226 240,219" />
                <polygon onmouseover="turnGreen(document.getElementById('blueToilet'))" onmouseout="returnColor(document.getElementById('blueToilet'))" id="blueToilet" points="107,72 108,78 111,86 113,91 114,97 106,101 98,108 94,111 93,114 88,118 89,111 89,101 91,86 91,83 95,79 99,76 103,73" />
                <polygon onmouseover="turnGreen(document.getElementById('blueWalshy'))" onmouseout="returnColor(document.getElementById('blueWalshy'))" id="blueWalshy" points="144,255 156,255 160,259 160,270 163,278 169,288 175,297 180,301 186,308 188,311 187,318 173,308 158,295 158,273 152,263 144,257" />
                <polygon onmouseover="turnGreen(document.getElementById('blueBubble'))" onmouseout="returnColor(document.getElementById('blueBubble'))" id="blueBubble" points="184,56 184,74 177,90 175,98 169,102 157,110 147,112 137,109 129,104 123,99 117,91 115,85 112,75 112,57" />
                <polygon onmouseover="turnGreen(document.getElementById('redCarPocket'))" onmouseout="returnColor(document.getElementById('redCarPocket'))" id="redCarPocket" points="395,176 398,180 401,183 406,187 402,192 399,195 396,201 390,210 380,220 380,186 384,184 389,181" />
                <polygon onmouseover="turnGreen(document.getElementById('redCurious'))" onmouseout="returnColor(document.getElementById('redCurious'))" id="redCurious" points="362,361 377,344 387,331 401,314 410,298 415,290 426,286 436,286 437,291 435,298 431,306 427,315 422,324 417,332 413,338 407,345 401,354 392,363 383,372 378,377" />
                <polygon onmouseover="turnGreen(document.getElementById('redCurvy'))" onmouseout="returnColor(document.getElementById('redCurvy'))" id="redCurvy" points="363,148 352,142 355,136 358,130 361,130 364,120 370,117 379,111 387,106 393,102 400,109 407,116 413,124 418,130 422,136 416,141 410,146 405,150 402,153 396,147 393,143 387,138 381,135 378,133 372,133 366,138 363,143" />
                <polygon onmouseover="turnGreen(document.getElementById('redEli'))" onmouseout="returnColor(document.getElementById('redEli'))" id="redEli" points="373,278 378,281 383,284 392,289 388,295 385,295 377,291 373,286" />
                <polygon onmouseover="turnGreen(document.getElementById('redGhandi'))" onmouseout="returnColor(document.getElementById('redGhandi'))" id="redGhandi" points="368,201 363,199 360,196 358,191 358,185 356,177 354,167 350,159 347,153 340,147 342,143 345,141 348,142 353,147 364,152 363,179 369,184" />
                <polygon onmouseover="turnGreen(document.getElementById('redGlass'))" onmouseout="returnColor(document.getElementById('redGlass'))" id="redGlass" points="446,277 450,273 454,268 459,263 465,257 466,253 468,243 471,237 475,237 477,240 482,241 486,242 486,247 483,256 478,265 474,273 466,280 459,284 452,288 451,283 449,280" />
                <polygon onmouseover="turnGreen(document.getElementById('redHighLedge'))" onmouseout="returnColor(document.getElementById('redHighLedge'))" id="redHighLedge" points="370,262 370,274 369,275 370,295 366,304 363,312 358,313 353,311 352,311 345,315 336,321 329,325 323,330 320,329 319,327 331,319 340,310 356,298 356,296 356,273 358,266 363,262" />
                <polygon onmouseover="turnGreen(document.getElementById('redNerd'))" onmouseout="returnColor(document.getElementById('redNerd'))" id="redNerd" points="282,360 289,360 289,375 293,378 304,380 317,381 334,370 342,371 344,373 333,380 322,386 312,391 303,393 294,396 288, 396 288,389 280,382 274,376 267,376 267,373 282,373" />
                <polygon onmouseover="turnGreen(document.getElementById('redPinkPocket'))" onmouseout="returnColor(document.getElementById('redPinkPocket'))" id="redPinkPocket" points="379,247 383,247 388,255 392,262 396,268 400,276 401,279 399,279 393,277 385,271 379,267" />
                <polygon onmouseover="turnGreen(document.getElementById('redStreet'))" onmouseout="returnColor(document.getElementById('redStreet'))" id="redStreet" points="287,400 297,399 310,396 323,391 331,387 339,382 348,375 355,369 362,363 376,378 367,386 358,394 348,401 339,406 329,410 319,414 310,416 299,420 287,422" />
                <polygon onmouseover="turnGreen(document.getElementById('redSlide'))" onmouseout="returnColor(document.getElementById('redSlide'))" id="redSlide" points="278,72 293,73 301,73 309,75 316,79 321,82 327,88 331,94 337,100 344,107 352,111 359,115 363,118 356,130 346,124 338,121 330,114 325,110 319,105 314,100 311,96 301,93 293,90 277,90" />
                <polygon onmouseover="turnGreen(document.getElementById('redToilet'))" onmouseout="returnColor(document.getElementById('redToilet'))" id="redToilet" points="403,71 407,73 412,77 419,94 420,92 421,101 422,112 422,119 417,114 411,108 405,103 395,97 398,91 400,83 403,76" />
                <polygon onmouseover="turnGreen(document.getElementById('redWalshy'))" onmouseout="returnColor(document.getElementById('redWalshy'))" id="redWalshy" points="368,254 354,255 350,259 349,271 345,281 340,289 332,300 327,305 323,311 323,317 324,320 333,312 344,304 351,298 352,296 354,270 355,268 355,266 363,260 368,259" />
                <polygon onmouseover="turnGreen(document.getElementById('redGhandiRamp'))" onmouseout="returnColor(document.getElementById('redGhandiRamp'))" id="redGhandiRamp" points="812,214 815,215 823,213 830,210 829,204 828,195 826,185 822,174 820,169 817,164 815,160 811,156 808,156 801,161 796,164 797,166 801,173 806,179 808,184 810,189 810,195 813,198" /> 
                <polygon onmouseover="turnGreen(document.getElementById('redJumpUp'))" onmouseout="returnColor(document.getElementById('redJumpUp'))" id="redJumpUp" points="800,270 800,272 801,272 801,280 800,280 800,282 811,282 811,280 810,280 811,272 811,272 811,270" /> 
                <polygon onmouseover="turnGreen(document.getElementById('redNipple'))" onmouseout="returnColor(document.getElementById('redNipple'))" id="redNipple" points="749,196 755,196 759,205 760,215 754,227 747,227 743,219 743,206" /> 
                <polygon onmouseover="turnGreen(document.getElementById('blueNipple'))" onmouseout="returnColor(document.getElementById('blueNipple'))" id="blueNipple" points="704,196 709,196 714,203 715,223 709,229 706,228 699,223 699,204" /> 
                <polygon onmouseover="turnGreen(document.getElementById('bigNipple'))" onmouseout="returnColor(document.getElementById('bigNipple'))" id="bigNipple" points="732,303 740,295 740,289 742,282 743,279 743,266 740,266 740,259 735,254 722,254 719,260 720,266 715,266 715,271 715,282 716,286 718,295 726,303" /> 
                <polygon onmouseover="turnGreen(document.getElementById('redTunnel'))" onmouseout="returnColor(document.getElementById('redTunnel'))" id="redTunnel" points="597,272 598,278 601,284 601,288 603,292 606,300 608,305 609,310 610,316 611,320 616,321 623,318 625,316 622,309 620,302 619,296 617,292 613,285 612,277 610,272" /> 
                <polygon onmouseover="turnGreen(document.getElementById('blueGhandiRamp'))" onmouseout="returnColor(document.getElementById('blueGhandiRamp'))" id="blueGhandiRamp" points="649,156 661,165 661,167 657,172 653,177 650,184 649,190 647,199 645,215 629,210 629,206 632,197 634,183 637,173 639,167 643,162"/> 
                <polygon onmouseover="turnGreen(document.getElementById('blueJumpUp'))" onmouseout="returnColor(document.getElementById('blueJumpUp'))" id="blueJumpUp" points="647,270 657,270 657,272 656,273 656,280 657,280 657,282 646,282 646,280 647,280 647,272 646,272" /> 
                <polygon onmouseover="turnGreen(document.getElementById('blueTunnel'))" onmouseout="returnColor(document.getElementById('blueTunnel'))" id="blueTunnel" points="848,271 861,271 860,275 858,280 857,284 855,290 854,294 852,298 851,303 849,309 847,315 846,321 843,320 833,316 834,315 836,306 838,297 842,289 844,284 846,277 847,271" /> 
                <polygon onmouseover="turnGreen(document.getElementById('car2'))" onmouseout="returnColor(document.getElementById('car2'))" id="car2" points="682,103 687,102 696,99 702,104 710,107 718,110 721,110 737,111 744,108 756,103 760,101 766,101 773,102 777,103 775,111 773,118 769,125 767,132 765,136 760,141 756,147 748,152 745,151 740,146 733,142 732,142 726,141 720,144 714,148 712,152 707,150 701,145 696,140 693,133 689,129 688,122 684,116 684,112 683,110 681,106" /> 
                <polygon onmouseover="turnGreen(document.getElementById('car1'))" onmouseout="returnColor(document.getElementById('car1'))" id="car1" points="701,167 701,180 758,180 758,167 752,169 744,170 736,173 722,173 717,171" /> 
                <polygon onmouseover="turnGreen(document.getElementById('pink1'))" onmouseout="returnColor(document.getElementById('pink1'))" id="pink1" points="687,342 705,342 704,345 719,345 720,346 722,347 736,348 737,347 740,346 753,345 753,343 770,342 775,366 750,378 740,387 720,388 717,386 707,377 683,367 683,364" /> 
                <circle onmouseover="turnGreen(document.getElementById('blue1'))" onmouseout="returnColor(document.getElementById('blue1'))" id="blue1" cx="570" cy="234.5" r="41"/>
                <circle onmouseover="turnGreen(document.getElementById('red1'))" onmouseout="returnColor(document.getElementById('red1'))" id="red1" cx="889" cy="235" r="41"/>
                <circle onmouseover="turnGreen(document.getElementById('blue2'))" onmouseout="returnColor(document.getElementById('blue2'))" id="blue2" cx="83" cy="235.6" r="41"/>
                <circle onmouseover="turnGreen(document.getElementById('red2'))" onmouseout="returnColor(document.getElementById('red2'))" id="red2" cx="430" cy="235.6" r="41"/>
</svg>